{
  "accessors": [
    {
      "bufferView": 2,
      "componentType": 5126,
      "count": 65532,
      "max": [
        31.567420959472656,
        2.4702110290527344,
        27.06220817565918
      ],
      "min": [
        -32.051551818847656,
        -19.67929458618164,
        -1.2488820552825928
      ],
      "type": "VEC3"
    },
    {
      "bufferView": 2,
      "byteOffset": 786384,
      "componentType": 5126,
      "count": 65532,
      "max": [
        0.999153196811676,
        0.9978941082954407,
        0.9999122023582458
      ],
      "min": [
        -1.0,
        -0.9999337196350098,
        -0.9999843835830688
      ],
      "type": "VEC3"
    },
    {
      "bufferView": 1,
      "componentType": 5126,
      "count": 65532,
      "max": [
        0.9883869886398315,
        0.822655975818634
      ],
      "min": [
        0.0007810000097379088,
        0.000813000020571053
      ],
      "type": "VEC2"
    },
    {
      "bufferView": 0,
      "componentType": 5125,
      "count": 364278,
      "type": "SCALAR"
    },
    {
      "bufferView": 2,
      "byteOffset": 1572768,
      "componentType": 5126,
      "count": 65532,
      "max": [
        10.435334205627441,
        0.5011190176010132,
        26.851118087768555
      ],
      "min": [
        -32.01203536987305,
        -17.671768188476563,
        6.15111780166626
      ],
      "type": "VEC3"
    },
    {
      "bufferView": 2,
      "byteOffset": 2359152,
      "componentType": 5126,
      "count": 65532,
      "max": [
        0.829803466796875,
        0.9982700347900391,
        0.9999921917915344
      ],
      "min": [
        -0.9826045036315918,
        -0.9999940395355225,
        -0.9405719041824341
      ],
      "type": "VEC3"
    },
    {
      "bufferView": 1,
      "byteOffset": 524256,
      "componentType": 5126,
      "count": 65532,
      "max": [
        0.850400984287262,
        0.453125
      ],
      "min": [
        0.005468999966979027,
        0.019940000027418137
      ],
      "type": "VEC2"
    },
    {
      "bufferView": 0,
      "byteOffset": 1457112,
      "componentType": 5125,
      "count": 373386,
      "type": "SCALAR"
    },
    {
      "bufferView": 2,
      "byteOffset": 3145536,
      "componentType": 5126,
      "count": 65532,
      "max": [
        31.435333251953125,
        1.9145649671554565,
        23.47559356689453
      ],
      "min": [
        -10.327434539794922,
        -17.644351959228516,
        -4.401319980621338
      ],
      "type": "VEC3"
    },
    {
      "bufferView": 2,
      "byteOffset": 3931920,
      "componentType": 5126,
      "count": 65532,
      "max": [
        0.9028723835945129,
        0.9873278141021729,
        0.9996345639228821
      ],
      "min": [
        -0.6110756993293762,
        -0.9999985098838806,
        -0.9999998211860657
      ],
      "type": "VEC3"
    },
    {
      "bufferView": 1,
      "byteOffset": 1048512,
      "componentType": 5126,
      "count": 65532,
      "max": [
        0.9963769912719727,
        0.807030975818634
      ],
      "min": [
        0.08749999850988388,
        0.08906800299882889
      ],
      "type": "VEC2"
    },
    {
      "bufferView": 0,
      "byteOffset": 2950656,
      "componentType": 5125,
      "count": 365106,
      "type": "SCALAR"
    },
    {
      "bufferView": 2,
      "byteOffset": 4718304,
      "componentType": 5126,
      "count": 65532,
      "max": [
        31.435333251953125,
        2.4922659397125244,
        17.251117706298828
      ],
      "min": [
        -27.264665603637695,
        -15.78543472290039,
        -4.3019700050354
      ],
      "type": "VEC3"
    },
    {
      "bufferView": 2,
      "byteOffset": 5504688,
      "componentType": 5126,
      "count": 65532,
      "max": [
        0.7941898107528687,
        1.0,
        1.0
      ],
      "min": [
        -0.8801929354667664,
        -0.987496018409729,
        -0.9999570846557617
      ],
      "type": "VEC3"
    },
    {
      "bufferView": 1,
      "byteOffset": 1572768,
      "componentType": 5126,
      "count": 65532,
      "max": [
        0.7452239990234375,
        0.9977380037307739
      ],
      "min": [
        0.0886949971318245,
        0.1742900013923645
      ],
      "type": "VEC2"
    },
    {
      "bufferView": 0,
      "byteOffset": 4411080,
      "componentType": 5125,
      "count": 322854,
      "type": "SCALAR"
    },
    {
      "bufferView": 2,
      "byteOffset": 6291072,
      "componentType": 5126,
      "count": 65532,
      "max": [
        31.235334396362305,
        2.5470850467681885,
        17.821533203125
      ],
      "min": [
        -24.66466522216797,
        -10.455259323120117,
        -4.413650035858154
      ],
      "type": "VEC3"
    },
    {
      "bufferView": 2,
      "byteOffset": 7077456,
      "componentType": 5126,
      "count": 65532,
      "max": [
        0.8277003765106201,
        1.0,
        0.9998819828033447
      ],
      "min": [
        -0.7552021741867065,
        -0.6159727573394775,
        -0.9999663233757019
      ],
      "type": "VEC3"
    },
    {
      "bufferView": 1,
      "byteOffset": 2097024,
      "componentType": 5126,
      "count": 65532,
      "max": [
        0.9748070240020752,
        0.9992190003395081
      ],
      "min": [
        0.10593199729919434,
        0.6347900032997131
      ],
      "type": "VEC2"
    },
    {
      "bufferView": 0,
      "byteOffset": 5702496,
      "componentType": 5125,
      "count": 332418,
      "type": "SCALAR"
    },
    {
      "bufferView": 2,
      "byteOffset": 7863840,
      "componentType": 5126,
      "count": 65532,
      "max": [
        31.435333251953125,
        2.3549399375915527,
        19.584064483642578
      ],
      "min": [
        -27.464664459228516,
        -11.985434532165527,
        -3.816894054412842
      ],
      "type": "VEC3"
    },
    {
      "bufferView": 2,
      "byteOffset": 8650224,
      "componentType": 5126,
      "count": 65532,
      "max": [
        0.9994864463806152,
        1.0,
        0.9960436224937439
      ],
      "min": [
        -0.9141179323196411,
        -0.9894023537635803,
        -0.9999999403953552
      ],
      "type": "VEC3"
    },
    {
      "bufferView": 1,
      "byteOffset": 2621280,
      "componentType": 5126,
      "count": 65532,
      "max": [
        0.9808189868927002,
        0.9728929996490479
      ],
      "min": [
        0.025577999651432037,
        0.6022509932518005
      ],
      "type": "VEC2"
    },
    {
      "bufferView": 0,
      "byteOffset": 7032168,
      "componentType": 5125,
      "count": 325032,
      "type": "SCALAR"
    },
    {
      "bufferView": 2,
      "byteOffset": 9436608,
      "componentType": 5126,
      "count": 65532,
      "max": [
        28.135334014892578,
        2.5410048961639404,
        21.414905548095703
      ],
      "min": [
        -28.964664459228516,
        -15.452701568603516,
        -4.360899925231934
      ],
      "type": "VEC3"
    },
    {
      "bufferView": 2,
      "byteOffset": 10222992,
      "componentType": 5126,
      "count": 65532,
      "max": [
        0.9001909494400024,
        1.0,
        0.999957263469696
      ],
      "min": [
        -0.8196917772293091,
        -0.9369317889213562,
        -1.0
      ],
      "type": "VEC3"
    },
    {
      "bufferView": 1,
      "byteOffset": 3145536,
      "componentType": 5126,
      "count": 65532,
      "max": [
        0.8945299983024597,
        0.9986540079116821
      ],
      "min": [
        0.0007810000097379088,
        0.5504469871520996
      ],
      "type": "VEC2"
    },
    {
      "bufferView": 0,
      "byteOffset": 8332296,
      "componentType": 5125,
      "count": 304788,
      "type": "SCALAR"
    },
    {
      "bufferView": 2,
      "byteOffset": 11009376,
      "componentType": 5126,
      "count": 65532,
      "max": [
        22.135334014892578,
        2.3145649433135986,
        23.93181800842285
      ],
      "min": [
        -27.064664840698242,
        -17.385435104370117,
        -2.1216061115264893
      ],
      "type": "VEC3"
    },
    {
      "bufferView": 2,
      "byteOffset": 11795760,
      "componentType": 5126,
      "count": 65532,
      "max": [
        0.8265269994735718,
        0.9456919431686401,
        0.9999644756317139
      ],
      "min": [
        -0.8861390948295593,
        -0.9639014005661011,
        -0.9998157024383545
      ],
      "type": "VEC3"
    },
    {
      "bufferView": 1,
      "byteOffset": 3669792,
      "componentType": 5126,
      "count": 65532,
      "max": [
        0.8267930150032043,
        0.6848300099372864
      ],
      "min": [
        0.22891999781131744,
        0.2394530028104782
      ],
      "type": "VEC2"
    },
    {
      "bufferView": 0,
      "byteOffset": 9551448,
      "componentType": 5125,
      "count": 353031,
      "type": "SCALAR"
    },
    {
      "bufferView": 2,
      "byteOffset": 12582144,
      "componentType": 5126,
      "count": 10113,
      "max": [
        8.735334396362305,
        -6.085434913635254,
        13.851118087768555
      ],
      "min": [
        -21.222877502441406,
        -13.68543529510498,
        2.2823920249938965
      ],
      "type": "VEC3"
    },
    {
      "bufferView": 2,
      "byteOffset": 12703500,
      "componentType": 5126,
      "count": 10113,
      "max": [
        0.47203129529953003,
        -0.06401214748620987,
        -0.15315310657024384
      ],
      "min": [
        -0.7393504977226257,
        -0.987496018409729,
        -0.9584969878196716
      ],
      "type": "VEC3"
    },
    {
      "bufferView": 1,
      "byteOffset": 4194048,
      "componentType": 5126,
      "count": 10113,
      "max": [
        0.8278440237045288,
        0.6648439764976501
      ],
      "min": [
        0.4247319996356964,
        0.3826340138912201
      ],
      "type": "VEC2"
    },
    {
      "bufferView": 0,
      "byteOffset": 10963572,
      "componentType": 5125,
      "count": 37827,
      "type": "SCALAR"
    }
  ],
  "asset": {
    "extras": {
      "author": "Vermont State Univ. Digital Archaeology Project (https://sketchfab.com/VTSU3D)",
      "license": "CC-BY-NC-ND-4.0 (http://creativecommons.org/licenses/by-nc-nd/4.0/)",
      "source": "https://sketchfab.com/3d-models/otter-creek-point-from-the-ki-site-ki-201-45105b93f16e446f9187f887e8d08ce6",
      "title": "Otter Creek Point from the KI Site (KI 201)"
    },
    "generator": "Sketchfab-15.49.0",
    "version": "2.0"
  },
  "bufferViews": [
    {
      "buffer": 0,
      "byteLength": 11114880,
      "name": "floatBufferViews",
      "target": 34963
    },
    {
      "buffer": 0,
      "byteLength": 4274952,
      "byteOffset": 11114880,
      "byteStride": 8,
      "name": "floatBufferViews",
      "target": 34962
    },
    {
      "buffer": 0,
      "byteLength": 12824856,
      "byteOffset": 15389832,
      "byteStride": 12,
      "name": "floatBufferViews",
      "target": 34962
    }
  ],
  "buffers": [
    {
      "byteLength": 28214688,
      "uri": "scene.bin"
    }
  ],
  "images": [
    {
      "uri": "textures/material_0_baseColor.jpeg"
    }
  ],
  "materials": [
    {
      "doubleSided": true,
      "name": "material_0",
      "pbrMetallicRoughness": {
        "baseColorTexture": {
          "index": 0
        },
        "metallicFactor": 0.0,
        "roughnessFactor": 0.4376586748096509
      }
    }
  ],
  "meshes": [
    {
      "name": "Object_0",
      "primitives": [
        {
          "attributes": {
            "NORMAL": 1,
            "POSITION": 0,
            "TEXCOORD_0": 2
          },
          "indices": 3,
          "material": 0,
          "mode": 4
        }
      ]
    },
    {
      "name": "Object_1",
      "primitives": [
        {
          "attributes": {
            "NORMAL": 5,
            "POSITION": 4,
            "TEXCOORD_0": 6
          },
          "indices": 7,
          "material": 0,
          "mode": 4
        }
      ]
    },
    {
      "name": "Object_2",
      "primitives": [
        {
          "attributes": {
            "NORMAL": 9,
            "POSITION": 8,
            "TEXCOORD_0": 10
          },
          "indices": 11,
          "material": 0,
          "mode": 4
        }
      ]
    },
    {
      "name": "Object_3",
      "primitives": [
        {
          "attributes": {
            "NORMAL": 13,
            "POSITION": 12,
            "TEXCOORD_0": 14
          },
          "indices": 15,
          "material": 0,
          "mode": 4
        }
      ]
    },
    {
      "name": "Object_4",
      "primitives": [
        {
          "attributes": {
            "NORMAL": 17,
            "POSITION": 16,
            "TEXCOORD_0": 18
          },
          "indices": 19,
          "material": 0,
          "mode": 4
        }
      ]
    },
    {
      "name": "Object_5",
      "primitives": [
        {
          "attributes": {
            "NORMAL": 21,
            "POSITION": 20,
            "TEXCOORD_0": 22
          },
          "indices": 23,
          "material": 0,
          "mode": 4
        }
      ]
    },
    {
      "name": "Object_6",
      "primitives": [
        {
          "attributes": {
            "NORMAL": 25,
            "POSITION": 24,
            "TEXCOORD_0": 26
          },
          "indices": 27,
          "material": 0,
          "mode": 4
        }
      ]
    },
    {
      "name": "Object_7",
      "primitives": [
        {
          "attributes": {
            "NORMAL": 29,
            "POSITION": 28,
            "TEXCOORD_0": 30
          },
          "indices": 31,
          "material": 0,
          "mode": 4
        }
      ]
    },
    {
      "name": "Object_8",
      "primitives": [
        {
          "attributes": {
            "NORMAL": 33,
            "POSITION": 32,
            "TEXCOORD_0": 34
          },
          "indices": 35,
          "material": 0,
          "mode": 4
        }
      ]
    }
  ],
  "nodes": [
    {
      "children": [
        1
      ],
      "matrix": [
        0.6888706684112549,
        0.6419113874435426,
        -0.33675947785377486,
        0.0,
        0.31930777430534363,
        -0.6857807636260985,
        -0.6540239453315736,
        0.0,
        -0.6507685780525208,
        0.34300798177719133,
        -0.6773815751075744,
        0.0,
        0.0,
        0.0,
        0.0,
        1.0
      ],
      "name": "Sketchfab_model"
    },
    {
      "children": [
        2,
        3,
        4,
        5,
        6,
        7,
        8,
        9,
        10
      ],
      "name": "KI 201.obj.cleaner.materialmerger.gles"
    },
    {
      "mesh": 0,
      "name": "Object_2"
    },
    {
      "mesh": 1,
      "name": "Object_3"
    },
    {
      "mesh": 2,
      "name": "Object_4"
    },
    {
      "mesh": 3,
      "name": "Object_5"
    },
    {
      "mesh": 4,
      "name": "Object_6"
    },
    {
      "mesh": 5,
      "name": "Object_7"
    },
    {
      "mesh": 6,
      "name": "Object_8"
    },
    {
      "mesh": 7,
      "name": "Object_9"
    },
    {
      "mesh": 8,
      "name": "Object_10"
    }
  ],
  "samplers": [
    {
      "magFilter": 9729,
      "minFilter": 9987,
      "wrapS": 10497,
      "wrapT": 10497
    }
  ],
  "scene": 0,
  "scenes": [
    {
      "name": "Sketchfab_Scene",
      "nodes": [
        0
      ]
    }
  ],
  "textures": [
    {
      "sampler": 0,
      "source": 0
    }
  ]
}
